<?xml version="1.0" encoding="UTF-8" standalone="no"?>
<!DOCTYPE svg PUBLIC "-//W3C//DTD SVG 1.1//EN" "http://www.w3.org/Graphics/SVG/1.1/DTD/svg11.dtd">
<svg version="1.1" xmlns="http://www.w3.org/2000/svg" xmlns:xlink="http://www.w3.org/1999/xlink" preserveAspectRatio="xMidYMid meet" viewBox="0 0 24 27" width="24" height="27"><defs><path d="M0 27L0 3L24 3L24 27L0 27Z" id="c3VawHx0qU"></path><path d="M0 27L0 3L24 3L24 27L0 27Z" id="a10VXCv60e"></path><path d="M0 27L0 3L24 3L24 27L0 27Z" id="a1C9YkI3KX"></path><path d="M0 27L0 3L24 3L24 27L0 27Z" id="a1pr1V49f9"></path><path d="M12 27L3 21L3 3L21 3L21 21L12 27ZM8.41 8L7 9.41L10.59 13L7 16.59L8.41 18L12 14.41L15.59 18L17 16.59L13.41 13L17 9.41L15.59 8L12 11.59L8.41 8Z" id="c23sAm7TnK"></path><path d="M12 27L3 21L3 3L21 3L21 21L12 27ZM8.41 8L7 9.41L10.59 13L7 16.59L8.41 18L12 14.41L15.59 18L17 16.59L13.41 13L17 9.41L15.59 8L12 11.59L8.41 8Z" id="a5PW0wVJiO"></path><path d="M12 27L3 21L3 3L21 3L21 21L12 27ZM8.41 8L7 9.41L10.59 13L7 16.59L8.41 18L12 14.41L15.59 18L17 16.59L13.41 13L17 9.41L15.59 8L12 11.59L8.41 8Z" id="b930vG63W"></path><path d="M12 27L3 21L3 3L21 3L21 21L12 27ZM8.41 8L7 9.41L10.59 13L7 16.59L8.41 18L12 14.41L15.59 18L17 16.59L13.41 13L17 9.41L15.59 8L12 11.59L8.41 8Z" id="drapIR0F2"></path></defs><g><g><g><use xlink:href="#c3VawHx0qU" opacity="1" fill="#000000" fill-opacity="0"></use><g><use xlink:href="#c3VawHx0qU" opacity="1" fill-opacity="0" stroke="#000000" stroke-width="1" stroke-opacity="0"></use></g></g><g><use xlink:href="#a10VXCv60e" opacity="1" fill="#000000" fill-opacity="0"></use><g><use xlink:href="#a10VXCv60e" opacity="1" fill-opacity="0" stroke="#000000" stroke-width="1" stroke-opacity="0"></use></g></g><g><use xlink:href="#a1C9YkI3KX" opacity="1" fill="#000000" fill-opacity="0"></use><g><use xlink:href="#a1C9YkI3KX" opacity="1" fill-opacity="0" stroke="#000000" stroke-width="1" stroke-opacity="0"></use></g></g><g><use xlink:href="#a1pr1V49f9" opacity="1" fill="#000000" fill-opacity="0"></use><g><use xlink:href="#a1pr1V49f9" opacity="1" fill-opacity="0" stroke="#000000" stroke-width="1" stroke-opacity="0"></use></g></g><g><use xlink:href="#c23sAm7TnK" opacity="1" fill="#ffffff" fill-opacity="1"></use><g><use xlink:href="#c23sAm7TnK" opacity="1" fill-opacity="0" stroke="#000000" stroke-width="1" stroke-opacity="0"></use></g></g><g><use xlink:href="#a5PW0wVJiO" opacity="1" fill="#000000" fill-opacity="0"></use><g><use xlink:href="#a5PW0wVJiO" opacity="1" fill-opacity="0" stroke="#000000" stroke-width="1" stroke-opacity="0"></use></g></g><g><use xlink:href="#b930vG63W" opacity="1" fill="#000000" fill-opacity="0"></use><g><use xlink:href="#b930vG63W" opacity="1" fill-opacity="0" stroke="#000000" stroke-width="1" stroke-opacity="0"></use></g></g><g><use xlink:href="#drapIR0F2" opacity="1" fill="#000000" fill-opacity="0"></use><g><use xlink:href="#drapIR0F2" opacity="1" fill-opacity="0" stroke="#000000" stroke-width="1" stroke-opacity="0"></use></g></g></g></g></svg>