<?xml version="1.0" encoding="UTF-8" standalone="no"?>
<!DOCTYPE svg PUBLIC "-//W3C//DTD SVG 1.1//EN" "http://www.w3.org/Graphics/SVG/1.1/DTD/svg11.dtd">
<svg version="1.1" xmlns="http://www.w3.org/2000/svg" xmlns:xlink="http://www.w3.org/1999/xlink" preserveAspectRatio="xMidYMid meet" viewBox="0 0 27 24" width="27" height="24"><defs><path d="M0 24L0 0L24 0L24 24L0 24Z" id="d3ahVozea"></path><path d="M0 24L0 0L24 0L24 24L0 24Z" id="c3Z0urNjHk"></path><path d="M6 21L0 12L6 3L24 3L24 21L6 21ZM10.41 7L9 8.41L12.59 12L9 15.59L10.41 17L14 13.41L17.59 17L19 15.59L15.41 12L19 8.41L17.59 7L14 10.59L10.41 7Z" id="bDjVKVHi7"></path><path d="M6 21L0 12L6 3L24 3L24 21L6 21ZM10.41 7L9 8.41L12.59 12L9 15.59L10.41 17L14 13.41L17.59 17L19 15.59L15.41 12L19 8.41L17.59 7L14 10.59L10.41 7Z" id="jOJoqf5wJ"></path></defs><g><g><g><use xlink:href="#d3ahVozea" opacity="1" fill="#000000" fill-opacity="0"></use><g><use xlink:href="#d3ahVozea" opacity="1" fill-opacity="0" stroke="#000000" stroke-width="1" stroke-opacity="0"></use></g></g><g><use xlink:href="#c3Z0urNjHk" opacity="1" fill="#000000" fill-opacity="0"></use><g><use xlink:href="#c3Z0urNjHk" opacity="1" fill-opacity="0" stroke="#000000" stroke-width="1" stroke-opacity="0"></use></g></g><g><use xlink:href="#bDjVKVHi7" opacity="1" fill="#ffffff" fill-opacity="1"></use><g><use xlink:href="#bDjVKVHi7" opacity="1" fill-opacity="0" stroke="#000000" stroke-width="1" stroke-opacity="0"></use></g></g><g><use xlink:href="#jOJoqf5wJ" opacity="1" fill="#000000" fill-opacity="0"></use><g><use xlink:href="#jOJoqf5wJ" opacity="1" fill-opacity="0" stroke="#000000" stroke-width="1" stroke-opacity="0"></use></g></g></g></g></svg>