<?xml version="1.0" encoding="UTF-8" standalone="no"?>
<!DOCTYPE svg PUBLIC "-//W3C//DTD SVG 1.1//EN" "http://www.w3.org/Graphics/SVG/1.1/DTD/svg11.dtd">
<svg version="1.1" xmlns="http://www.w3.org/2000/svg" xmlns:xlink="http://www.w3.org/1999/xlink" preserveAspectRatio="xMidYMid meet" viewBox="0 0 27 24" width="27" height="24"><defs><path d="M27 24L3 24L3 0L27 0L27 24Z" id="l2wPvkmwwB"></path><path d="M27 24L3 24L3 0L27 0L27 24Z" id="ecfhdWk17"></path><path d="M27 24L3 24L3 0L27 0L27 24Z" id="aXN66SRSw"></path><path d="M27 24L3 24L3 0L27 0L27 24Z" id="bHQRPUTbG"></path><path d="M21 21L3 21L3 3L21 3L27 12L21 21ZM9.41 7L8 8.41L11.59 12L8 15.59L9.41 17L13 13.41L16.59 17L18 15.59L14.41 12L18 8.41L16.59 7L13 10.59L9.41 7Z" id="h30xpgAVPq"></path><path d="M21 21L3 21L3 3L21 3L27 12L21 21ZM9.41 7L8 8.41L11.59 12L8 15.59L9.41 17L13 13.41L16.59 17L18 15.59L14.41 12L18 8.41L16.59 7L13 10.59L9.41 7Z" id="a7NpLJfk9"></path><path d="M21 21L3 21L3 3L21 3L27 12L21 21ZM9.41 7L8 8.41L11.59 12L8 15.59L9.41 17L13 13.41L16.59 17L18 15.59L14.41 12L18 8.41L16.59 7L13 10.59L9.41 7Z" id="ccCr3Ct4z"></path><path d="M21 21L3 21L3 3L21 3L27 12L21 21ZM9.41 7L8 8.41L11.59 12L8 15.59L9.41 17L13 13.41L16.59 17L18 15.59L14.41 12L18 8.41L16.59 7L13 10.59L9.41 7Z" id="c4a5977kxW"></path></defs><g><g><g><use xlink:href="#l2wPvkmwwB" opacity="1" fill="#000000" fill-opacity="0"></use><g><use xlink:href="#l2wPvkmwwB" opacity="1" fill-opacity="0" stroke="#000000" stroke-width="1" stroke-opacity="0"></use></g></g><g><use xlink:href="#ecfhdWk17" opacity="1" fill="#000000" fill-opacity="0"></use><g><use xlink:href="#ecfhdWk17" opacity="1" fill-opacity="0" stroke="#000000" stroke-width="1" stroke-opacity="0"></use></g></g><g><use xlink:href="#aXN66SRSw" opacity="1" fill="#000000" fill-opacity="0"></use><g><use xlink:href="#aXN66SRSw" opacity="1" fill-opacity="0" stroke="#000000" stroke-width="1" stroke-opacity="0"></use></g></g><g><use xlink:href="#bHQRPUTbG" opacity="1" fill="#000000" fill-opacity="0"></use><g><use xlink:href="#bHQRPUTbG" opacity="1" fill-opacity="0" stroke="#000000" stroke-width="1" stroke-opacity="0"></use></g></g><g><use xlink:href="#h30xpgAVPq" opacity="1" fill="#ffffff" fill-opacity="1"></use><g><use xlink:href="#h30xpgAVPq" opacity="1" fill-opacity="0" stroke="#000000" stroke-width="1" stroke-opacity="0"></use></g></g><g><use xlink:href="#a7NpLJfk9" opacity="1" fill="#000000" fill-opacity="0"></use><g><use xlink:href="#a7NpLJfk9" opacity="1" fill-opacity="0" stroke="#000000" stroke-width="1" stroke-opacity="0"></use></g></g><g><use xlink:href="#ccCr3Ct4z" opacity="1" fill="#000000" fill-opacity="0"></use><g><use xlink:href="#ccCr3Ct4z" opacity="1" fill-opacity="0" stroke="#000000" stroke-width="1" stroke-opacity="0"></use></g></g><g><use xlink:href="#c4a5977kxW" opacity="1" fill="#000000" fill-opacity="0"></use><g><use xlink:href="#c4a5977kxW" opacity="1" fill-opacity="0" stroke="#000000" stroke-width="1" stroke-opacity="0"></use></g></g></g></g></svg>