<?xml version="1.0" encoding="UTF-8" standalone="no"?>
<!DOCTYPE svg PUBLIC "-//W3C//DTD SVG 1.1//EN" "http://www.w3.org/Graphics/SVG/1.1/DTD/svg11.dtd">
<svg version="1.1" xmlns="http://www.w3.org/2000/svg" xmlns:xlink="http://www.w3.org/1999/xlink" preserveAspectRatio="xMidYMid meet" viewBox="0 0 24 27" width="24" height="27"><defs><path d="M24 0L24 24L0 24L0 0L24 0Z" id="f3IctlFBPu"></path><path d="M24 0L24 24L0 24L0 0L24 0Z" id="b3srxAhzsZ"></path><path d="M24 0L24 24L0 24L0 0L24 0Z" id="b9ErBzqLs"></path><path d="M24 0L24 24L0 24L0 0L24 0Z" id="e21qkxHnnN"></path><path d="M21 24L3 24L3 6L12 0L21 6L21 24ZM8.41 9L7 10.41L10.59 14L7 17.59L8.41 19L12 15.41L15.59 19L17 17.59L13.41 14L17 10.41L15.59 9L12 12.59L8.41 9Z" id="a1rgXi3uYD"></path><path d="M21 24L3 24L3 6L12 0L21 6L21 24ZM8.41 9L7 10.41L10.59 14L7 17.59L8.41 19L12 15.41L15.59 19L17 17.59L13.41 14L17 10.41L15.59 9L12 12.59L8.41 9Z" id="a20xwOtEmh"></path><path d="M21 24L3 24L3 6L12 0L21 6L21 24ZM8.41 9L7 10.41L10.59 14L7 17.59L8.41 19L12 15.41L15.59 19L17 17.59L13.41 14L17 10.41L15.59 9L12 12.59L8.41 9Z" id="bfnPcgBhb"></path><path d="M21 24L3 24L3 6L12 0L21 6L21 24ZM8.41 9L7 10.41L10.59 14L7 17.59L8.41 19L12 15.41L15.59 19L17 17.59L13.41 14L17 10.41L15.59 9L12 12.59L8.41 9Z" id="c3xlRgpagI"></path></defs><g><g><g><use xlink:href="#f3IctlFBPu" opacity="1" fill="#000000" fill-opacity="0"></use><g><use xlink:href="#f3IctlFBPu" opacity="1" fill-opacity="0" stroke="#000000" stroke-width="1" stroke-opacity="0"></use></g></g><g><use xlink:href="#b3srxAhzsZ" opacity="1" fill="#000000" fill-opacity="0"></use><g><use xlink:href="#b3srxAhzsZ" opacity="1" fill-opacity="0" stroke="#000000" stroke-width="1" stroke-opacity="0"></use></g></g><g><use xlink:href="#b9ErBzqLs" opacity="1" fill="#000000" fill-opacity="0"></use><g><use xlink:href="#b9ErBzqLs" opacity="1" fill-opacity="0" stroke="#000000" stroke-width="1" stroke-opacity="0"></use></g></g><g><use xlink:href="#e21qkxHnnN" opacity="1" fill="#000000" fill-opacity="0"></use><g><use xlink:href="#e21qkxHnnN" opacity="1" fill-opacity="0" stroke="#000000" stroke-width="1" stroke-opacity="0"></use></g></g><g><use xlink:href="#a1rgXi3uYD" opacity="1" fill="#ffffff" fill-opacity="1"></use><g><use xlink:href="#a1rgXi3uYD" opacity="1" fill-opacity="0" stroke="#000000" stroke-width="1" stroke-opacity="0"></use></g></g><g><use xlink:href="#a20xwOtEmh" opacity="1" fill="#000000" fill-opacity="0"></use><g><use xlink:href="#a20xwOtEmh" opacity="1" fill-opacity="0" stroke="#000000" stroke-width="1" stroke-opacity="0"></use></g></g><g><use xlink:href="#bfnPcgBhb" opacity="1" fill="#000000" fill-opacity="0"></use><g><use xlink:href="#bfnPcgBhb" opacity="1" fill-opacity="0" stroke="#000000" stroke-width="1" stroke-opacity="0"></use></g></g><g><use xlink:href="#c3xlRgpagI" opacity="1" fill="#000000" fill-opacity="0"></use><g><use xlink:href="#c3xlRgpagI" opacity="1" fill-opacity="0" stroke="#000000" stroke-width="1" stroke-opacity="0"></use></g></g></g></g></svg>